<svg xmlns="http://www.w3.org/2000/svg" viewBox="0 0 32 32" width="32" height="32">
  <g transform="translate(1.6105,2.25)">
    <g fill="none" stroke="#fff" stroke-linecap="round" stroke-linejoin="round" stroke-miterlimit="10" stroke-width="1.5">
      <g data-name="Group 13414">
        <path data-name="Path 4206" d="M8.651 2.888V1.441A.691.691 0 019.342.75h17.99a.691.691 0 01.691.691v1.79"/>
        <path data-name="Path 4207" d="M28.025 2.385v9.9a.691.691 0 01-.691.691H12.525"/>
        <path data-name="Path 4208" d="M27.771 1.173l-8.836 6.939a.992.992 0 01-1.228 0l-6.155-4.865-2.617-2.069"/>
      </g>
      <path data-name="Path 4209" d="M20.65 25.764l.949-4.112a1.276 1.276 0 00-.738-1.46l-4.427-1.9a1.291 1.291 0 00-1.491.361l-1.8 2.2a14.289 14.289 0 01-6.511-6.511l2.2-1.8a1.274 1.274 0 00.361-1.491l-1.9-4.421a1.269 1.269 0 00-1.455-.738l-4.1.954a1.274 1.274 0 00-.991 1.243A18.658 18.658 0 0019.408 26.75a1.261 1.261 0 001.242-.986z"/>
    </g>
  </g>
</svg>
